<svg width="25" height="30" viewBox="0 0 25 30" fill="none" xmlns="http://www.w3.org/2000/svg">
<path fill-rule="evenodd" clip-rule="evenodd" d="M19.9601 8.1711C19.9601 4.05076 16.6199 0.710571 12.4996 0.710571C8.37925 0.710571 5.03906 4.05076 5.03906 8.1711C5.03906 12.2914 8.37925 15.6316 12.4996 15.6316C16.6199 15.6316 19.9601 12.2914 19.9601 8.1711ZM6.46012 8.1711C6.46012 4.83559 9.16408 2.13162 12.4996 2.13162C15.8351 2.13162 18.5391 4.83559 18.5391 8.1711C18.5391 11.5066 15.8351 14.2106 12.4996 14.2106C9.16408 14.2106 6.46012 11.5066 6.46012 8.1711Z" fill="#0091FF"/>
<path fill-rule="evenodd" clip-rule="evenodd" d="M24.7923 27.5306C23.9249 20.7348 19.8273 17.3369 12.4995 17.3369C5.17175 17.3369 1.07416 20.7348 0.206748 27.5307C0.199132 27.5903 0.195312 27.6504 0.195312 27.7106C0.195312 28.4954 0.831511 29.1316 1.6163 29.1316H23.3827C23.4429 29.1316 23.503 29.1278 23.5626 29.1202C24.3412 29.0208 24.8917 28.3091 24.7923 27.5306ZM1.67071 27.3194C2.54359 21.5187 6.0138 18.7579 12.4995 18.7579C18.9853 18.7579 22.4555 21.5187 23.3284 27.3193L23.3827 27.7106L1.6157 27.7091L1.67071 27.3194Z" fill="#0091FF"/>
</svg>
