<svg width="21" height="18" viewBox="0 0 21 18" fill="none" xmlns="http://www.w3.org/2000/svg">
<path d="M4.824 9.272C3.592 9.272 2.584 8.856 1.8 8.024C1.032 7.176 0.648 6.048 0.648 4.64C0.648 3.232 1.032 2.112 1.8 1.28C2.584 0.432 3.592 0.0079999 4.824 0.0079999C6.056 0.0079999 7.056 0.432 7.824 1.28C8.592 2.112 8.976 3.232 8.976 4.64C8.976 6.048 8.592 7.176 7.824 8.024C7.056 8.856 6.056 9.272 4.824 9.272ZM14.832 0.199999H17.688L6.216 17H3.36L14.832 0.199999ZM4.824 7.304C5.368 7.304 5.792 7.08 6.096 6.632C6.416 6.184 6.576 5.52 6.576 4.64C6.576 3.76 6.416 3.096 6.096 2.648C5.792 2.2 5.368 1.976 4.824 1.976C4.296 1.976 3.872 2.208 3.552 2.672C3.232 3.12 3.072 3.776 3.072 4.64C3.072 5.504 3.232 6.168 3.552 6.632C3.872 7.08 4.296 7.304 4.824 7.304ZM16.224 17.192C15.424 17.192 14.704 17.008 14.064 16.64C13.44 16.256 12.952 15.712 12.6 15.008C12.248 14.304 12.072 13.488 12.072 12.56C12.072 11.632 12.248 10.816 12.6 10.112C12.952 9.408 13.44 8.872 14.064 8.504C14.704 8.12 15.424 7.928 16.224 7.928C17.456 7.928 18.456 8.352 19.224 9.2C20.008 10.032 20.4 11.152 20.4 12.56C20.4 13.968 20.008 15.096 19.224 15.944C18.456 16.776 17.456 17.192 16.224 17.192ZM16.224 15.224C16.768 15.224 17.192 15 17.496 14.552C17.816 14.088 17.976 13.424 17.976 12.56C17.976 11.696 17.816 11.04 17.496 10.592C17.192 10.128 16.768 9.896 16.224 9.896C15.696 9.896 15.272 10.12 14.952 10.568C14.632 11.016 14.472 11.68 14.472 12.56C14.472 13.44 14.632 14.104 14.952 14.552C15.272 15 15.696 15.224 16.224 15.224Z" fill="white"/>
</svg>
