<svg width="30" height="30" viewBox="0 0 30 30" fill="none" xmlns="http://www.w3.org/2000/svg">
<path d="M14.986 0.833344C7.166 0.833344 0.819336 7.18001 0.819336 15C0.819336 22.82 7.166 29.1667 14.986 29.1667C22.806 29.1667 29.1527 22.82 29.1527 15C29.1527 7.18001 22.806 0.833344 14.986 0.833344ZM20.1002 9.81501C21.616 9.81501 22.8343 11.0333 22.8343 12.5492C22.8343 14.065 21.616 15.2833 20.1002 15.2833C18.5843 15.2833 17.366 14.065 17.366 12.5492C17.3518 11.0333 18.5843 9.81501 20.1002 9.81501ZM11.6002 7.57668C13.4418 7.57668 14.9435 9.07834 14.9435 10.92C14.9435 12.7617 13.4418 14.2633 11.6002 14.2633C9.7585 14.2633 8.25684 12.7617 8.25684 10.92C8.25684 9.06418 9.74434 7.57668 11.6002 7.57668ZM11.6002 20.5108V25.8233C8.20017 24.7608 5.5085 22.14 4.3185 18.7967C5.806 17.21 9.51767 16.4025 11.6002 16.4025C12.351 16.4025 13.3002 16.5158 14.2918 16.7142C11.9685 17.9467 11.6002 19.5758 11.6002 20.5108ZM14.986 26.3333C14.6035 26.3333 14.2352 26.3192 13.8668 26.2767V20.5108C13.8668 18.4992 18.0318 17.4933 20.1002 17.4933C21.616 17.4933 24.2368 18.0458 25.5402 19.1225C23.8827 23.33 19.7885 26.3333 14.986 26.3333Z" fill="white"/>
</svg>
