<svg width="26" height="26" viewBox="0 0 26 26" fill="none" xmlns="http://www.w3.org/2000/svg">
<path fill-rule="evenodd" clip-rule="evenodd" d="M11.1197 9.51432C10.0519 6.40534 11.2235 3.1223 13.8149 1.28852L14.1055 1.09274C15.669 0.0914945 17.4485 -0.222646 19.3731 0.154253C20.3836 0.352149 20.7631 1.5984 20.0344 2.32591L17.9551 4.40237L18.3229 6.76166L20.677 7.12809L22.7601 5.04931C23.4586 4.35143 24.6287 4.67405 24.8997 5.58546L24.9348 5.73419C25.2501 7.51116 25.0421 9.10979 24.2814 10.4953C22.8993 12.9547 21.1101 13.9817 18.6996 14.3144C17.3997 14.4938 16.2338 14.2483 15.2939 13.8702L4.88368 24.2824C3.64713 25.3922 2.1198 25.3613 0.909234 24.2753C-0.310287 23.1813 -0.229415 21.3767 0.714383 20.2982C0.959391 20.0007 2.01325 18.9248 3.81597 17.1213L11.2129 9.7728L11.1197 9.51432ZM19.126 1.416C17.4209 1.08207 15.898 1.38942 14.5575 2.33803C12.5468 3.76095 11.4121 6.40771 12.3357 9.09668C12.3945 9.26283 12.4434 9.39401 12.4823 9.49023L12.5468 9.63607C12.6276 9.91095 12.5789 10.1675 12.4008 10.4057C12.2915 10.5171 11.6986 11.1043 10.8429 11.9517C7.99242 14.7746 2.22608 20.485 1.70689 21.1155L1.62454 21.219C1.22905 21.7643 1.09041 22.7106 1.76779 23.3182C2.49033 23.9664 3.3304 24.0332 4.14498 23.2111L14.5575 12.7894C14.7523 12.6132 14.9233 12.5166 15.0703 12.4996C15.2909 12.4742 15.5034 12.5624 15.6118 12.6096L15.8556 12.7061C16.3257 12.8778 17.3941 13.1967 18.5237 13.0408C19.9761 12.8403 21.7826 12.3173 23.1606 9.86539C23.7659 8.76275 23.9353 7.46057 23.6688 5.95885L21.38 8.24565L21.2679 8.32126C21.1491 8.38852 21.0099 8.43071 20.8503 8.44785C20.7642 8.43968 20.5663 8.41247 20.2567 8.36623L17.778 7.97641C17.4733 7.91486 17.254 7.71996 17.1202 7.39172L16.6478 4.36034C16.6342 4.06547 16.7095 3.83475 16.8738 3.6682L19.126 1.416Z" fill="black"/>
</svg>
