<svg width="26" height="30" viewBox="0 0 26 30" fill="none" xmlns="http://www.w3.org/2000/svg">
<path fill-rule="evenodd" clip-rule="evenodd" d="M18.8934 1.23054C18.3388 0.458054 17.4461 0 16.4952 0H3.10277C1.47222 0 0.150391 1.32183 0.150391 2.95238V26.5714C0.150391 28.202 1.47222 29.5238 3.10277 29.5238H22.1433C23.7739 29.5238 25.0957 28.202 25.0957 26.5714V10.8195C25.0957 10.2017 24.9019 9.59951 24.5416 9.09767L18.8934 1.23054ZM3.10277 1.47619H16.4952L16.6718 1.48679C17.0796 1.5359 17.4517 1.7535 17.6943 2.09146L23.3425 9.95859L23.4405 10.1148C23.5575 10.3303 23.6195 10.5724 23.6195 10.8195V26.5714L23.6096 26.7436C23.5243 27.4778 22.9004 28.0476 22.1433 28.0476H3.10277L2.93062 28.0377C2.19645 27.9524 1.62658 27.3285 1.62658 26.5714V2.95238L1.63651 2.78023C1.72178 2.04606 2.34573 1.47619 3.10277 1.47619Z" fill="#0091FF"/>
<path d="M10.0675 6.64288C10.4751 6.64288 10.8056 6.97334 10.8056 7.38098C10.8056 7.78862 10.4751 8.11907 10.0675 8.11907H5.43536C5.02772 8.11907 4.69727 7.78862 4.69727 7.38098C4.69727 6.97334 5.02772 6.64288 5.43536 6.64288H10.0675Z" fill="#0091FF"/>
<path d="M19.6128 14.7619C20.0204 14.7619 20.3509 15.0924 20.3509 15.5C20.3509 15.9076 20.0204 16.2381 19.6128 16.2381H5.43536C5.02772 16.2381 4.69727 15.9076 4.69727 15.5C4.69727 15.0924 5.02772 14.7619 5.43536 14.7619H19.6128Z" fill="#0091FF"/>
<path d="M19.6128 18.4524C20.0204 18.4524 20.3509 18.7828 20.3509 19.1905C20.3509 19.5981 20.0204 19.9286 19.6128 19.9286H5.43536C5.02772 19.9286 4.69727 19.5981 4.69727 19.1905C4.69727 18.7828 5.02772 18.4524 5.43536 18.4524H19.6128Z" fill="#0091FF"/>
<path d="M19.6128 22.1429C20.0204 22.1429 20.3509 22.4733 20.3509 22.881C20.3509 23.2886 20.0204 23.6191 19.6128 23.6191H5.43536C5.02772 23.6191 4.69727 23.2886 4.69727 22.881C4.69727 22.4733 5.02772 22.1429 5.43536 22.1429H19.6128Z" fill="#0091FF"/>
<path d="M15.4959 0.134338C15.8583 0.134338 16.1596 0.39544 16.2221 0.73976L16.234 0.872434V8.66533C16.234 9.02767 16.4951 9.32903 16.8394 9.39153L16.9721 9.40342H24.0186C24.4262 9.40342 24.7567 9.73388 24.7567 10.1415C24.7567 10.5039 24.4956 10.8052 24.1513 10.8677L24.0186 10.8796H16.9721C15.8211 10.8796 14.8752 10.0014 14.7679 8.87858L14.7578 8.66533V0.872434C14.7578 0.464795 15.0883 0.134338 15.4959 0.134338Z" fill="#0091FF"/>
</svg>
