<svg width="18" height="18" viewBox="0 0 18 18" fill="none" xmlns="http://www.w3.org/2000/svg">
<path d="M8.1665 14H9.83317V12.3333H8.1665V14ZM8.99984 0.666672C4.39984 0.666672 0.666504 4.40001 0.666504 9.00001C0.666504 13.6 4.39984 17.3333 8.99984 17.3333C13.5998 17.3333 17.3332 13.6 17.3332 9.00001C17.3332 4.40001 13.5998 0.666672 8.99984 0.666672ZM8.99984 15.6667C5.32484 15.6667 2.33317 12.675 2.33317 9.00001C2.33317 5.32501 5.32484 2.33334 8.99984 2.33334C12.6748 2.33334 15.6665 5.32501 15.6665 9.00001C15.6665 12.675 12.6748 15.6667 8.99984 15.6667ZM8.99984 4.00001C7.15817 4.00001 5.6665 5.49167 5.6665 7.33334H7.33317C7.33317 6.41667 8.08317 5.66667 8.99984 5.66667C9.9165 5.66667 10.6665 6.41667 10.6665 7.33334C10.6665 9.00001 8.1665 8.79167 8.1665 11.5H9.83317C9.83317 9.62501 12.3332 9.41667 12.3332 7.33334C12.3332 5.49167 10.8415 4.00001 8.99984 4.00001Z" fill="black"/>
</svg>
