<svg width="20" height="20" viewBox="0 0 20 20" fill="none" xmlns="http://www.w3.org/2000/svg">
<path d="M9.1665 15H10.8332V13.3333H9.1665V15ZM9.99984 1.66663C5.39984 1.66663 1.6665 5.39996 1.6665 9.99996C1.6665 14.6 5.39984 18.3333 9.99984 18.3333C14.5998 18.3333 18.3332 14.6 18.3332 9.99996C18.3332 5.39996 14.5998 1.66663 9.99984 1.66663ZM9.99984 16.6666C6.32484 16.6666 3.33317 13.675 3.33317 9.99996C3.33317 6.32496 6.32484 3.33329 9.99984 3.33329C13.6748 3.33329 16.6665 6.32496 16.6665 9.99996C16.6665 13.675 13.6748 16.6666 9.99984 16.6666ZM9.99984 4.99996C8.15817 4.99996 6.6665 6.49163 6.6665 8.33329H8.33317C8.33317 7.41663 9.08317 6.66663 9.99984 6.66663C10.9165 6.66663 11.6665 7.41663 11.6665 8.33329C11.6665 9.99996 9.1665 9.79163 9.1665 12.5H10.8332C10.8332 10.625 13.3332 10.4166 13.3332 8.33329C13.3332 6.49163 11.8415 4.99996 9.99984 4.99996Z" fill="white"/>
</svg>
