<svg width="26" height="26" viewBox="0 0 26 26" fill="none" xmlns="http://www.w3.org/2000/svg">
<path d="M20.2765 6.11591C20.4998 5.8929 20.8462 5.86833 21.0966 6.04206L21.1856 6.1165L25.5 10.4366C25.7228 10.6597 25.7476 11.0057 25.5743 11.2561L25.5 11.3451L21.1856 15.6652C20.9347 15.9164 20.5277 15.9167 20.2765 15.6658C20.0532 15.4428 20.0282 15.0964 20.2016 14.8457L20.2759 14.7566L24.1356 10.8895L20.2759 7.02505C20.0529 6.80174 20.0283 6.45532 20.202 6.20489L20.2765 6.11591Z" fill="black"/>
<path d="M14.5442 10.248H24.1871C24.5421 10.248 24.8299 10.5358 24.8299 10.8908C24.8299 11.2459 24.5421 11.5337 24.1871 11.5337H14.5442C14.1892 11.5337 13.9014 11.2459 13.9014 10.8908C13.9014 10.5358 14.1892 10.248 14.5442 10.248Z" fill="black"/>
<path fill-rule="evenodd" clip-rule="evenodd" d="M1.58632 0.0432039C1.48787 0.0195298 1.38697 0.00756836 1.28571 0.00756836C0.575634 0.00756836 0 0.583202 0 1.29328V21.791C0 22.3853 0.407294 22.9021 0.985108 23.0411L9.10701 24.9942C9.20546 25.0178 9.30637 25.0298 9.40762 25.0298C10.1177 25.0298 10.6933 24.4542 10.6933 23.7441V3.24636C10.6933 2.65207 10.286 2.13523 9.70823 1.99628L1.58632 0.0432039ZM1.28571 21.791V1.29328L9.40762 3.24636V23.7441L1.28571 21.791Z" fill="black"/>
<path d="M16.2648 13.7034C16.5804 13.7034 16.8429 13.9308 16.8973 14.2307L16.9076 14.3462V19.1957C16.9076 20.29 16.5199 21.078 15.8486 21.5432C15.4678 21.807 15.0514 21.9329 14.6855 21.9635L14.5072 21.971H10.0608C9.70579 21.971 9.41797 21.6832 9.41797 21.3282C9.41797 21.0126 9.64538 20.7501 9.94527 20.6957L10.0608 20.6853H14.5072C15.0714 20.6853 15.5575 20.373 15.616 19.3994L15.6219 19.1957V14.3462C15.6219 13.9912 15.9097 13.7034 16.2648 13.7034Z" fill="black"/>
<path d="M16.2649 8.26764C16.5805 8.26764 16.843 8.04023 16.8974 7.74034L16.9078 7.62478V2.77528C16.9078 1.68098 16.52 0.892975 15.8487 0.427838C15.4679 0.164006 15.0515 0.0381222 14.6856 0.00753975L14.5073 -6.67572e-06L1.4329 -6.67572e-06C1.07786 -6.67572e-06 0.790039 0.28781 0.790039 0.64285C0.790039 0.958442 1.01745 1.22092 1.31734 1.27535L1.4329 1.28571L14.5073 1.28571C15.0715 1.28571 15.5576 1.59805 15.6161 2.57164L15.622 2.77528V7.62478C15.622 7.97982 15.9099 8.26764 16.2649 8.26764Z" fill="black"/>
</svg>
