<svg width="28" height="28" viewBox="0 0 28 28" fill="none" xmlns="http://www.w3.org/2000/svg">
<rect x="0.666992" y="9.55563" width="26.6667" height="1.33333" fill="#0091FF"/>
<path fill-rule="evenodd" clip-rule="evenodd" d="M27.3337 5.55564C27.3337 4.08288 26.1398 2.88898 24.667 2.88898H3.33366C1.8609 2.88898 0.666992 4.08288 0.666992 5.55564V24.6667C0.666992 26.1394 1.8609 27.3334 3.33366 27.3334H24.667C26.1398 27.3334 27.3337 26.1394 27.3337 24.6667V5.55564ZM3.33366 4.22231H24.667L24.8225 4.23128C25.4856 4.3083 26.0003 4.87186 26.0003 5.55564V24.6667L25.9914 24.8222C25.9143 25.4853 25.3508 26 24.667 26H3.33366L3.17816 25.9911C2.51505 25.914 2.00033 25.3505 2.00033 24.6667V5.55564L2.0093 5.40015C2.08632 4.73703 2.64988 4.22231 3.33366 4.22231Z" fill="#0091FF"/>
<rect x="6.15527" y="0.666687" width="1.33333" height="6.66667" rx="0.5" fill="#0091FF"/>
<rect x="20.5068" y="0.666687" width="1.33333" height="6.66667" rx="0.5" fill="#0091FF"/>
<path d="M20.1952 13.3166C20.4554 13.0561 20.8775 13.0558 21.1381 13.3159C21.3696 13.5472 21.3956 13.9064 21.2158 14.1663L21.1387 14.2587L11.7832 23.6277C11.5528 23.8585 11.195 23.8852 10.9351 23.707L10.8427 23.6306L6.86484 19.696C6.60307 19.4371 6.60076 19.015 6.85969 18.7532C7.08984 18.5205 7.44893 18.4928 7.70973 18.6714L7.80248 18.748L11.3083 22.216L20.1952 13.3166Z" fill="#0091FF"/>
</svg>
