<svg width="27" height="27" viewBox="0 0 27 27" fill="none" xmlns="http://www.w3.org/2000/svg">
<path fill-rule="evenodd" clip-rule="evenodd" d="M12.214 2.57139C12.214 1.50627 11.3506 0.642822 10.2854 0.642822H2.57115C1.50603 0.642822 0.642578 1.50627 0.642578 2.57139V7.07139C0.642578 8.13651 1.50603 8.99996 2.57115 8.99996H10.2854C11.3506 8.99996 12.214 8.13651 12.214 7.07139V2.57139ZM2.57115 1.92854H10.2854L10.401 1.93889C10.7009 1.99333 10.9283 2.2558 10.9283 2.57139V7.07139L10.9179 7.18695C10.8635 7.48684 10.601 7.71425 10.2854 7.71425H2.57115L2.4556 7.70389C2.1557 7.64946 1.92829 7.38698 1.92829 7.07139V2.57139L1.93865 2.45584C1.99308 2.15595 2.25556 1.92854 2.57115 1.92854Z" fill="#0091FF"/>
<path fill-rule="evenodd" clip-rule="evenodd" d="M26.3566 19.9285C26.3566 18.8634 25.4931 18 24.428 18H16.7137C15.6486 18 14.7852 18.8634 14.7852 19.9285V24.4285C14.7852 25.4937 15.6486 26.3571 16.7137 26.3571H24.428C25.4931 26.3571 26.3566 25.4937 26.3566 24.4285V19.9285ZM16.7137 19.2857H24.428L24.5436 19.296C24.8435 19.3505 25.0709 19.6129 25.0709 19.9285V24.4285L25.0605 24.5441C25.0061 24.844 24.7436 25.0714 24.428 25.0714H16.7137L16.5982 25.061C16.2983 25.0066 16.0709 24.7441 16.0709 24.4285V19.9285L16.0812 19.813C16.1357 19.5131 16.3981 19.2857 16.7137 19.2857Z" fill="#0091FF"/>
<path fill-rule="evenodd" clip-rule="evenodd" d="M26.3566 2.57139C26.3566 1.50627 25.4931 0.642822 24.428 0.642822H16.7137C15.6486 0.642822 14.7852 1.50627 14.7852 2.57139V13.4988C14.7852 14.5639 15.6486 15.4273 16.7137 15.4273H24.428C25.4931 15.4273 26.3566 14.5639 26.3566 13.4988V2.57139ZM16.7137 1.92854H24.428L24.5436 1.93889C24.8435 1.99333 25.0709 2.2558 25.0709 2.57139V13.4988L25.0605 13.6143C25.0061 13.9142 24.7436 14.1416 24.428 14.1416H16.7137L16.5982 14.1313C16.2983 14.0768 16.0709 13.8144 16.0709 13.4988V2.57139L16.0812 2.45584C16.1357 2.15595 16.3981 1.92854 16.7137 1.92854Z" fill="#0091FF"/>
<path fill-rule="evenodd" clip-rule="evenodd" d="M12.214 13.5011C12.214 12.436 11.3506 11.5726 10.2854 11.5726H2.57115C1.50603 11.5726 0.642578 12.436 0.642578 13.5011V24.4285C0.642578 25.4936 1.50603 26.3571 2.57115 26.3571H10.2854C11.3506 26.3571 12.214 25.4936 12.214 24.4285V13.5011ZM2.57115 12.8583H10.2854L10.401 12.8686C10.7009 12.9231 10.9283 13.1856 10.9283 13.5011V24.4285L10.9179 24.5441C10.8635 24.844 10.601 25.0714 10.2854 25.0714H2.57115L2.4556 25.061C2.1557 25.0066 1.92829 24.7441 1.92829 24.4285V13.5011L1.93865 13.3856C1.99308 13.0857 2.25556 12.8583 2.57115 12.8583Z" fill="#0091FF"/>
</svg>
