<svg width="26" height="32" viewBox="0 0 26 32" fill="none" xmlns="http://www.w3.org/2000/svg">
<path fill-rule="evenodd" clip-rule="evenodd" d="M17.1632 27V25.1705H7.63379V27C7.63379 29.6315 9.76702 31.7647 12.3985 31.7647L12.6785 31.7566C15.1796 31.6117 17.1632 29.5375 17.1632 27ZM9.22202 26.7586H15.575V27L15.5661 27.2385C15.4488 28.814 14.1795 30.0787 12.5866 30.171L12.3526 30.1771L12.1215 30.1683C10.5178 30.0465 9.22202 28.6746 9.22202 27V26.7586Z" fill="#9E9EA8"/>
<path fill-rule="evenodd" clip-rule="evenodd" d="M15.9723 3.57353C15.9723 1.59992 14.3723 0 12.3987 0L12.1541 0.00824423C10.2946 0.133976 8.8252 1.68216 8.8252 3.57353V6.67059H15.9723V3.57353ZM12.2612 1.59286L12.4146 1.58824L12.6017 1.59849C13.6028 1.70015 14.384 2.54561 14.384 3.57353V5.08076H10.4134V3.57353L10.4241 3.367C10.5227 2.41615 11.2942 1.65825 12.2612 1.59286Z" fill="#9E9EA8"/>
<path fill-rule="evenodd" clip-rule="evenodd" d="M6.32433 7.63665C8.23591 5.98177 9.835 5.17511 12.3987 5.17511C15.3274 5.17511 18.2023 6.76101 19.5433 8.9178C20.802 10.9422 21.1243 12.0291 21.1243 14.8152L21.1307 15.412C21.2031 18.796 21.892 22.1904 23.2344 24.325L24.765 26.7588H0L1.571 24.3124C2.23133 23.2841 2.77479 21.8279 3.17085 19.9896C3.38468 18.8471 3.60018 16.7277 3.67861 15.1505C3.6538 13.607 3.7339 12.5044 3.99337 11.5963C4.40878 10.1424 5.20751 8.60349 6.32433 7.63665ZM18.1946 9.75642C17.241 8.22277 14.9654 6.76335 12.3987 6.76335C10.1172 6.76335 8.70809 7.71428 7.71686 8.53702L7.36385 8.83743C6.35826 9.70799 5.74558 11.2449 5.52049 12.0327C5.2954 12.8204 5.24681 13.8914 5.26664 15.1249C5.18797 16.7748 4.9722 18.9982 4.73198 20.2818C4.2904 22.3344 3.68221 23.964 2.90741 25.1706H21.8899C19.9807 22.1348 19.5361 17.5662 19.5361 14.8152L19.5325 14.3745C19.4961 12.2579 19.1834 11.4088 18.4917 10.2433L18.1946 9.75642Z" fill="#9E9EA8"/>
<path d="M25.3984 8.20589C25.3984 10.6912 23.3837 12.7059 20.8984 12.7059C18.4132 12.7059 16.3984 10.6912 16.3984 8.20589C16.3984 5.72061 18.4132 3.70589 20.8984 3.70589C23.3837 3.70589 25.3984 5.72061 25.3984 8.20589Z" fill="#FFC200" stroke="#F6F5FA"/>
</svg>
