<svg width="27" height="26" viewBox="0 0 27 26" fill="none" xmlns="http://www.w3.org/2000/svg">
<path fill-rule="evenodd" clip-rule="evenodd" d="M12.0709 9.51432C11.003 6.40534 12.1747 3.1223 14.766 1.28852L15.0566 1.09274C16.6201 0.0914945 18.3997 -0.222646 20.3243 0.154253C21.3348 0.352149 21.7143 1.5984 20.9855 2.32591L18.9063 4.40237L19.274 6.76166L21.6282 7.12809L23.7113 5.04931C24.4098 4.35143 25.5799 4.67405 25.8508 5.58546L25.8859 5.73419C26.2013 7.51116 25.9933 9.10979 25.2326 10.4953C23.8504 12.9547 22.0613 13.9817 19.6507 14.3144C18.3509 14.4938 17.185 14.2483 16.245 13.8702L5.83486 24.2824C4.5983 25.3922 3.07097 25.3613 1.86041 24.2753C0.640885 23.1813 0.721757 21.3767 1.66555 20.2982C1.91056 20.0007 2.96442 18.9248 4.76715 17.1213L12.164 9.7728L12.0709 9.51432ZM20.0772 1.416C18.372 1.08207 16.8492 1.38942 15.5087 2.33803C13.498 3.76095 12.3633 6.40771 13.2868 9.09668C13.3457 9.26283 13.3946 9.39401 13.4335 9.49023L13.498 9.63607C13.5788 9.91095 13.5301 10.1675 13.352 10.4057C13.2427 10.5171 12.6498 11.1043 11.794 11.9517C8.94359 14.7746 3.17725 20.485 2.65807 21.1155L2.57571 21.219C2.18023 21.7643 2.04158 22.7106 2.71896 23.3182C3.4415 23.9664 4.28157 24.0332 5.09615 23.2111L15.5087 12.7894C15.7035 12.6132 15.8744 12.5166 16.0215 12.4996C16.2421 12.4742 16.4546 12.5624 16.5629 12.6096L16.8068 12.7061C17.2768 12.8778 18.3453 13.1967 19.4749 13.0408C20.9273 12.8403 22.7338 12.3173 24.1117 9.86539C24.7171 8.76275 24.8865 7.46057 24.62 5.95885L22.3312 8.24565L22.2191 8.32126C22.1003 8.38852 21.9611 8.43071 21.8015 8.44785C21.7153 8.43968 21.5174 8.41247 21.2079 8.36623L18.7292 7.97641C18.4244 7.91486 18.2052 7.71996 18.0714 7.39172L17.599 4.36034C17.5853 4.06547 17.6607 3.83475 17.825 3.6682L20.0772 1.416Z" fill="#0091FF"/>
</svg>
