<svg width="26" height="26" viewBox="0 0 26 26" fill="none" xmlns="http://www.w3.org/2000/svg">
<path d="M25 13C25 19.6274 19.6274 25 13 25C6.37258 25 1 19.6274 1 13C1 6.37258 6.37258 1 13 1C19.6274 1 25 6.37258 25 13Z" stroke="#F60707" stroke-width="2"/>
<path d="M18.2833 9.11926C18.6734 8.72911 18.6734 8.09656 18.2833 7.70642C17.8931 7.31627 17.2606 7.31627 16.8704 7.70642L12.9948 11.582L9.11926 7.70642C8.72911 7.31627 8.09656 7.31627 7.70642 7.70642C7.31627 8.09656 7.31627 8.72911 7.70642 9.11926L11.582 12.9948L7.70642 16.8704C7.31627 17.2606 7.31627 17.8931 7.70642 18.2833C8.09656 18.6734 8.72911 18.6734 9.11926 18.2833L12.9948 14.4077L16.8704 18.2833C17.2605 18.6734 17.8931 18.6734 18.2832 18.2833C18.6734 17.8931 18.6734 17.2606 18.2832 16.8704L14.4077 12.9948L18.2833 9.11926Z" fill="#F60707"/>
</svg>
