<svg width="26" height="26" viewBox="0 0 26 26" fill="none" xmlns="http://www.w3.org/2000/svg">
<path d="M25 13C25 19.6274 19.6274 25 13 25C6.37258 25 1 19.6274 1 13C1 6.37258 6.37258 1 13 1C19.6274 1 25 6.37258 25 13Z" stroke="#01CA84" stroke-width="2"/>
<path d="M6.64851 13.0507C6.28988 13.4119 6.29063 13.995 6.65018 14.3552L10.7424 18.4553C10.7687 18.4817 10.8115 18.4817 10.8378 18.4554L19.327 9.97456C19.6912 9.61069 19.6893 9.01977 19.3228 8.65826C18.96 8.30057 18.3767 8.30243 18.0163 8.66243L10.7901 15.8802L7.95824 13.0484C7.5963 12.6865 7.00917 12.6875 6.64851 13.0507Z" fill="#01CA84"/>
</svg>
