<svg width="27" height="27" viewBox="0 0 27 27" fill="none" xmlns="http://www.w3.org/2000/svg">
<path d="M20.9191 7.09729C21.1424 6.87428 21.4888 6.84971 21.7392 7.02344L21.8282 7.09789L26.1426 11.418C26.3654 11.6411 26.3902 11.9871 26.2169 12.2375L26.1426 12.3265L21.8282 16.6466C21.5773 16.8978 21.1703 16.8981 20.9191 16.6472C20.6958 16.4242 20.6707 16.0778 20.8441 15.8271L20.9185 15.738L24.7782 11.8709L20.9185 8.00643C20.6954 7.78313 20.6709 7.43671 20.8446 7.18628L20.9191 7.09729Z" fill="#0091FF"/>
<path d="M15.1868 11.2295H24.8297C25.1847 11.2295 25.4725 11.5173 25.4725 11.8723C25.4725 12.2274 25.1847 12.5152 24.8297 12.5152H15.1868C14.8318 12.5152 14.5439 12.2274 14.5439 11.8723C14.5439 11.5173 14.8318 11.2295 15.1868 11.2295Z" fill="#0091FF"/>
<path fill-rule="evenodd" clip-rule="evenodd" d="M2.2289 1.02465C2.13045 1.00098 2.02955 0.989014 1.92829 0.989014C1.21821 0.989014 0.642578 1.56465 0.642578 2.27473V22.7725C0.642578 23.3667 1.04987 23.8836 1.62769 24.0225L9.74959 25.9756C9.84804 25.9993 9.94894 26.0113 10.0502 26.0113C10.7603 26.0113 11.3359 25.4356 11.3359 24.7255V4.2278C11.3359 3.63352 10.9286 3.11667 10.3508 2.97773L2.2289 1.02465ZM1.92829 22.7725V2.27473L10.0502 4.2278V24.7255L1.92829 22.7725Z" fill="#0091FF"/>
<path d="M16.9074 14.6848C17.223 14.6848 17.4854 14.9122 17.5399 15.2121L17.5502 15.3277V20.1772C17.5502 21.2715 17.1625 22.0595 16.4911 22.5246C16.1104 22.7884 15.6939 22.9143 15.3281 22.9449L15.1498 22.9525H10.7034C10.3484 22.9525 10.0605 22.6646 10.0605 22.3096C10.0605 21.994 10.288 21.7315 10.5878 21.6771L10.7034 21.6667H15.1498C15.714 21.6667 16.2 21.3544 16.2586 20.3808L16.2645 20.1772V15.3277C16.2645 14.9726 16.5523 14.6848 16.9074 14.6848Z" fill="#0091FF"/>
<path d="M16.9075 9.24915C17.2231 9.24915 17.4855 9.02173 17.54 8.72184L17.5503 8.60629V3.75678C17.5503 2.66248 17.1626 1.87448 16.4912 1.40934C16.1105 1.14551 15.6941 1.01963 15.3282 0.989046L15.1499 0.9815L2.07547 0.9815C1.72043 0.9815 1.43262 1.26932 1.43262 1.62436C1.43262 1.93995 1.66003 2.20242 1.95992 2.25686L2.07547 2.26721L15.1499 2.26721C15.7141 2.26721 16.2002 2.57956 16.2587 3.55315L16.2646 3.75678V8.60629C16.2646 8.96133 16.5524 9.24915 16.9075 9.24915Z" fill="#0091FF"/>
</svg>
